<svg xmlns="http://www.w3.org/2000/svg" viewBox="0 0 200 200">
  <!-- Base del monumento -->
  <rect x="50" y="160" width="100" height="30" fill="#4a5568" rx="5"/>
  
  <!-- Pedestal -->
  <rect x="60" y="140" width="80" height="20" fill="#718096" rx="3"/>
  
  <!-- Columna principal -->
  <rect x="70" y="80" width="60" height="60" fill="#2d8659" rx="8"/>
  
  <!-- Techo/corona -->
  <polygon points="90,80 110,80 115,65 85,65" fill="#1a5a3e"/>
  
  <!-- Detalles decorativos -->
  <circle cx="85" cy="100" r="6" fill="#48bb78"/>
  <circle cx="100" cy="100" r="6" fill="#48bb78"/>
  <circle cx="115" cy="100" r="6" fill="#48bb78"/>
  
  <circle cx="85" cy="120" r="6" fill="#48bb78"/>
  <circle cx="100" cy="120" r="6" fill="#48bb78"/>
  <circle cx="115" cy="120" r="6" fill="#48bb78"/>
  
  <!-- Placa conmemorativa -->
  <rect x="80" y="105" width="40" height="15" fill="#e2e8f0" rx="2"/>
  <text x="100" y="115" font-family="Arial, sans-serif" font-size="8" text-anchor="middle" fill="#2d3748">UNAP</text>
  
  <!-- Elementos verdes decorativos (vegetación) -->
  <ellipse cx="45" cy="170" rx="15" ry="8" fill="#38a169"/>
  <ellipse cx="155" cy="170" rx="15" ry="8" fill="#38a169"/>
  <ellipse cx="30" cy="175" rx="10" ry="6" fill="#68d391"/>
  <ellipse cx="170" cy="175" rx="10" ry="6" fill="#68d391"/>
  
  <!-- Detalles adicionales -->
  <rect x="95" y="65" width="10" height="15" fill="#1a5a3e" rx="2"/>
</svg>